<svg xmlns="http://www.w3.org/2000/svg" viewBox="0 0 76.44 53.58"><path d="M0,33V9.84C0,3.78,3.12,0,9,0s9,3.78,9,9.84V33c0,6.06-3.12,9.84-9,9.84S0,39.06,0,33Zm13.44-.78V10.62c0-4.5-1.56-6.3-4.44-6.3s-4.44,1.8-4.44,6.3v21.6c0,4.5,1.56,6.3,4.44,6.3S13.44,36.72,13.44,32.22Z" transform="translate(0 0)" style="fill:#000000"/><path d="M42.36,18.24V33.48c0,6-3.12,9.42-8.64,9.42a8.35,8.35,0,0,1-4.2-1.2v9.66a2.22,2.22,0,1,1-4.44,0V18.24c0-6,3.12-9.42,8.64-9.42S42.36,12.24,42.36,18.24ZM37.92,19c0-4.14-1.32-6-4.2-6s-4.2,1.86-4.2,6v13.8c0,3.9,1.92,6,4.2,6,2.88,0,4.2-1.86,4.2-6Z" transform="translate(0 0)" style="fill:#000000"/><path d="M47.46,34.74a10.19,10.19,0,0,1,.42-3.12,2.35,2.35,0,0,1,2.94-1.92,2.07,2.07,0,0,1,1.32,2.82,8.26,8.26,0,0,0-.24,1.86c0,2.46,1.2,4.32,4.26,4.32s4.32-2.22,4.32-5.46c0-4.26-1.14-5.94-5.28-8.16l-2.1-1.14c-3.48-1.8-4.8-4.26-4.8-7.62,0-3.9,2.4-7.5,7.92-7.5,5.28,0,7.8,3.06,7.8,7.26v.66a2,2,0,0,1-2.1,2.16,2,2,0,0,1-2-2V16.8c0-2.4-1-3.9-3.66-3.9-2.46,0-3.48,1.32-3.48,3.24s.72,3,2.7,4l2.7,1.44C63,24.18,64.92,27.18,65,32.76c.06,6.48-3.3,10-8.94,10S47.46,39.18,47.46,34.74Z" transform="translate(0 0)" style="fill:#000000"/><path d="M70.44,40a3,3,0,1,1,3,3A3,3,0,0,1,70.44,40Zm.72-9.42V2.4a2.28,2.28,0,0,1,4.56,0V30.6a2.28,2.28,0,0,1-4.56,0Z" transform="translate(0 0)" style="fill:#000000"/></svg>